# xmcd
#
# Track frame offsets:
#	150
#	14738
#	22878
#	41535
#	56123
#	69396
#	83339
#	97958
#	110579
#	121811
#	132455
#	147096
#	159407
#	171789
#	184833
#	195975
#	209822
#	225615
#	238432
#	249664
#	261000
#	273058
#	285158
#	295361
#	307496
#	322887
#	336047
#
# Disc length: 4659 seconds
#
# Revision: 1
# Processed by: cddbd v1.5.1PL0 Copyright (c) Steve Scherf et al.
# Submitted via: audiograbber 1.83.01
#
DISCID=8812311b
DTITLE=Jim Reeves - The Best Of Jim Reeves
DYEAR=1900
DGENRE=
TTITLE0=Corina Corina - Brookes And Dunn
TTITLE1=Jim Reeves - Green Grass Of Home
TTITLE2=Don Williams - I Believe In Love
TTITLE3=Dwight Yoakam - Heartaches By The Numbers
TTITLE4=Floyd Kramer - For The Good Times
TTITLE5=Johnny Rodreigiez - I Can't Stop Loving You
TTITLE6=Johnny Rodrigez - Since I Met You Baby
TTITLE7=Johnny Rodrigez - Wasted Days And Nights
TTITLE8=Jim Reeves - Someday You Will Want Me To Want You
TTITLE9=Jim Reeves - Am I Losing You
TTITLE10=Johnny Rodrigez - Let's Leave The Lights On Tonight
TTITLE11=Patsy Cline - Always
TTITLE12=Patsy Cline - Crazy
TTITLE13=Patsy Cline - I Fall To Pieces
TTITLE14=Patsy Cline - Leaving On Yor Mind
TTITLE15=Patsy Cline - She's Got You
TTITLE16=Patsy Cline - He's Not You
TTITLE17=Leann Rimes - Blue For You
TTITLE18=Jim Reeves - Someday You'll Want Me To Want You
TTITLE19=Wilber - Kansas City
TTITLE20=Willie Nelson - How Time Slips Away
TTITLE21=Brenda Lee - I'm Sorry
TTITLE22=Floyd Kramer - Blue Eyes
TTITLE23=Jim Reeves - Missing You
TTITLE24=Leann Rimes - Born To Lose
TTITLE25=Leann Rimes - Crazy
TTITLE26=Leann Rimes - I Fall To Pieces
EXTD=
EXTT0=
EXTT1=
EXTT2=
EXTT3=
EXTT4=
EXTT5=
EXTT6=
EXTT7=
EXTT8=
EXTT9=
EXTT10=
EXTT11=
EXTT12=
EXTT13=
EXTT14=
EXTT15=
EXTT16=
EXTT17=
EXTT18=
EXTT19=
EXTT20=
EXTT21=
EXTT22=
EXTT23=
EXTT24=
EXTT25=
EXTT26=
PLAYORDER=
